<svg aria-hidden="true" style="position: absolute; width: 0; height: 0; overflow: hidden;" version="1.1" xmlns="http://www.w3.org/2000/svg" xmlns:xlink="http://www.w3.org/1999/xlink">
<defs>

    <symbol id="icon-booikng" viewBox="0 0 32 32">
    <path d="M32 6.144c0-3.391-2.694-6.144-6.010-6.144h-19.98c-3.316 0-6.010 2.753-6.010 6.144v19.712c0 3.39 2.694 6.144 6.010 6.144h19.98c3.316 0 6.010-2.754 6.010-6.144v-19.712z"></path>
    <path d="M0.001 19.88h15.982v12.12h-15.982v-12.12z"></path>
    <path fill="#fff" style="fill: var(--color2, #fff)" d="M14.543 21.181l-2.577-0.003v-3.151c0-0.673 0.255-1.024 0.819-1.104h1.758c1.254 0 2.065 0.808 2.065 2.117 0 1.344-0.791 2.139-2.065 2.14zM11.966 12.682v-0.829c0-0.726 0.3-1.071 0.959-1.116h1.319c1.131 0 1.808 0.692 1.808 1.851 0 0.882-0.465 1.912-1.768 1.912h-2.319v-1.818zM17.834 15.826l-0.466-0.268 0.407-0.356c0.474-0.416 1.267-1.352 1.267-2.966 0-2.473-1.875-4.067-4.777-4.067l-3.689-0.001c-0.86 0.033-1.549 0.748-1.558 1.633v14.030h5.313c3.226 0 5.307-1.795 5.307-4.576 0-1.497-0.672-2.777-1.803-3.428z"></path>
    <path fill="#f4f4f4" style="fill: var(--color3, #f4f4f4)" d="M21.021 21.893c0-1.072 0.845-1.939 1.887-1.939 1.044 0 1.894 0.867 1.894 1.939 0 1.070-0.849 1.939-1.894 1.939-1.042 0-1.887-0.869-1.887-1.939z"></path>
    </symbol>

    <symbol id="icon-facebook" viewBox="0 0 32 32">
    <path d="M16 0c-8.836 0-16 7.164-16 16 0 7.503 5.166 13.8 12.135 15.529v-10.639h-3.299v-4.89h3.299v-2.107c0-5.446 2.465-7.97 7.811-7.97 1.014 0 2.763 0.199 3.478 0.397v4.432c-0.378-0.040-1.034-0.059-1.848-0.059-2.623 0-3.637 0.994-3.637 3.578v1.729h5.226l-0.898 4.89h-4.328v10.993c7.923-0.957 14.061-7.702 14.061-15.883-0.001-8.836-7.164-16-16.001-16z"></path>
    </symbol>

    <symbol id="icon-instagram" viewBox="0 0 32 32">
    <path d="M16 2.881c4.275 0 4.781 0.019 6.462 0.094 1.563 0.069 2.406 0.331 2.969 0.55 0.744 0.288 1.281 0.638 1.837 1.194 0.563 0.563 0.906 1.094 1.194 1.838 0.219 0.563 0.481 1.412 0.55 2.969 0.075 1.688 0.094 2.194 0.094 6.463 0 4.275-0.019 4.781-0.094 6.463-0.069 1.563-0.331 2.406-0.55 2.969-0.288 0.744-0.637 1.281-1.194 1.837-0.563 0.563-1.094 0.906-1.837 1.194-0.563 0.219-1.413 0.481-2.969 0.55-1.688 0.075-2.194 0.094-6.463 0.094-4.275 0-4.781-0.019-6.463-0.094-1.563-0.069-2.406-0.331-2.969-0.55-0.744-0.288-1.281-0.637-1.838-1.194-0.563-0.563-0.906-1.094-1.194-1.837-0.219-0.563-0.481-1.413-0.55-2.969-0.075-1.688-0.094-2.194-0.094-6.463 0-4.275 0.019-4.781 0.094-6.463 0.069-1.563 0.331-2.406 0.55-2.969 0.288-0.744 0.638-1.281 1.194-1.838 0.563-0.563 1.094-0.906 1.838-1.194 0.563-0.219 1.412-0.481 2.969-0.55 1.681-0.075 2.188-0.094 6.463-0.094zM16 0c-4.344 0-4.887 0.019-6.594 0.094-1.7 0.075-2.869 0.35-3.881 0.744-1.056 0.412-1.95 0.956-2.837 1.85-0.894 0.888-1.438 1.781-1.85 2.831-0.394 1.019-0.669 2.181-0.744 3.881-0.075 1.713-0.094 2.256-0.094 6.6s0.019 4.887 0.094 6.594c0.075 1.7 0.35 2.869 0.744 3.881 0.413 1.056 0.956 1.95 1.85 2.837 0.887 0.887 1.781 1.438 2.831 1.844 1.019 0.394 2.181 0.669 3.881 0.744 1.706 0.075 2.25 0.094 6.594 0.094s4.887-0.019 6.594-0.094c1.7-0.075 2.869-0.35 3.881-0.744 1.050-0.406 1.944-0.956 2.831-1.844s1.438-1.781 1.844-2.831c0.394-1.019 0.669-2.181 0.744-3.881 0.075-1.706 0.094-2.25 0.094-6.594s-0.019-4.887-0.094-6.594c-0.075-1.7-0.35-2.869-0.744-3.881-0.394-1.063-0.938-1.956-1.831-2.844-0.887-0.887-1.781-1.438-2.831-1.844-1.019-0.394-2.181-0.669-3.881-0.744-1.712-0.081-2.256-0.1-6.6-0.1z"></path>
    <path d="M16 7.781c-4.537 0-8.219 3.681-8.219 8.219s3.681 8.219 8.219 8.219c4.538 0 8.219-3.681 8.219-8.219s-3.681-8.219-8.219-8.219zM16 21.331c-2.944 0-5.331-2.387-5.331-5.331s2.388-5.331 5.331-5.331c2.944 0 5.331 2.388 5.331 5.331s-2.387 5.331-5.331 5.331z"></path>
    <path d="M26.462 7.456c0 1.063-0.863 1.919-1.919 1.919-1.063 0-1.919-0.863-1.919-1.919 0-1.063 0.863-1.919 1.919-1.919s1.919 0.862 1.919 1.919z"></path>
    </symbol>

</defs>
</svg>
